<?xml version="1.0" encoding="UTF-8"?>
<!DOCTYPE svg PUBLIC "-//W3C//DTD SVG 1.1//EN" "http://www.w3.org/Graphics/SVG/1.1/DTD/svg11.dtd">
<!-- Creator: CorelDRAW X7 -->
<svg xmlns="http://www.w3.org/2000/svg" xml:space="preserve" width="16.0917in" height="7.7in" version="1.1" shape-rendering="geometricPrecision" text-rendering="geometricPrecision" image-rendering="optimizeQuality" fill-rule="evenodd" clip-rule="evenodd"
viewBox="0 0 16176 7740"
 xmlns:xlink="http://www.w3.org/1999/xlink">
 <g id="Layer_x0020_1">
  <metadata id="CorelCorpID_0Corel-Layer"/>
  <rect fill="none" x="4" width="16084" height="7740"/>
  <polygon fill="#E9E6E3" fill-opacity="0.800000" stroke="#BDBFC1" stroke-width="7.91524" stroke-opacity="0.800000" points="4,774 11431,774 11431,6960 4,6960 "/>
  <g id="_2183484793728">
   <polyline fill="none" stroke="#FEFEFE" stroke-width="33.5092" points="877,5518 827,6174 938,6114 1132,5934 1153,5645 "/>
   <line fill="none" stroke="#FEFEFE" stroke-width="33.5092" x1="1469" y1="5679" x2="1350" y2= "5581" />
   <g>
    <polyline fill="none" stroke="#FEFEFE" stroke-width="33.5092" points="4,5463 1339,5587 1473,5516 1518,4744 1523,4673 "/>
    <polyline fill="none" stroke="#FEFEFE" stroke-width="33.5092" points="673,4749 590,6306 257,6308 319,4694 "/>
    <path fill="none" stroke="#FEFEFE" stroke-width="33.5092" d="M2152 4888l105 260 313 133 -40 198 -136 -62 -433 -196 -775 964 -189 525 -127 226 -183 -104 -24 56 55 48 377 0 137 -251 409 -717 97 51 96 51 -61 116 -114 -4 92 -176 140 -26 450 234c0,0 -329,693 -329,708 0,6 -119,10 -254,12 -34,0 -68,1 -102,1 -149,1 -289,1 -289,1l162 -278 352 -479 92 -176 114 64 320 -662 27 13 89 -177 -122 -58 -111 220 -181 -91 -303 627 -324 -163 -58 76 667 364 -139 259 -159 197 -119 245 -159 -13 121 -234 192 -270 193 103 -112 187 -136 227"/>
   </g>
   <path fill="none" stroke="#FEFEFE" stroke-width="33.5092" d="M3728 4514l-148 882 -5 82 -98 148c0,0 36,191 33,234 -4,43 11,207 20,229 9,23 -54,201 -54,201l131 283 -49 379"/>
   <line fill="none" stroke="#FEFEFE" stroke-width="33.5092" x1="2667" y1="6582" x2="2556" y2= "6847" />
   <line fill="none" stroke="#FEFEFE" stroke-width="33.5092" x1="4521" y1="6663" x2="4313" y2= "6819" />
   <path fill="none" stroke="#FEFEFE" stroke-width="33.5092" d="M3457 5641l144 25 442 247c0,0 95,40 150,29"/>
   <path fill="none" stroke="#FEFEFE" stroke-width="33.5092" d="M4942 6466l-275 -192c0,0 -152,-88 -170,-111 -17,-22 -304,-221 -304,-221"/>
   <path fill="none" stroke="#FEFEFE" stroke-width="33.5092" d="M4666 4826c0,0 112,199 59,548"/>
   <path fill="none" stroke="#FEFEFE" stroke-width="33.5092" d="M4583 6243l46 -80c0,0 -42,-162 -33,-190 9,-28 129,-599 129,-599"/>
   <polyline fill="none" stroke="#FEFEFE" stroke-width="33.5092" points="5539,6950 5700,6741 5803,6720 5919,6897 5919,6952 "/>
   <path fill="none" stroke="#FEFEFE" stroke-width="33.5092" d="M5877 6866l202 -256 8 -128c0,0 -126,26 -251,-247"/>
   <path fill="none" stroke="#FEFEFE" stroke-width="33.5092" d="M5542 6035c0,0 87,22 143,123 55,100 84,74 84,74l67 3"/>
   <path fill="none" stroke="#FEFEFE" stroke-width="33.5092" d="M5798 5278c0,0 -21,80 38,132 60,51 0,188 0,188 0,0 -73,184 -25,285 48,101 25,352 25,352"/>
   <path fill="none" stroke="#FEFEFE" stroke-width="33.5092" d="M6092 6489c-6,-1 78,2 95,-22 17,-24 125,-166 125,-166l35 -249 154 -471 133 13 142 408 24 695 -44 18c0,0 -319,197 -297,235"/>
   <path fill="none" stroke="#FEFEFE" stroke-width="33.5092" d="M6450 6947c0,0 -153,-41 -162,-92"/>
   <path fill="none" stroke="#FEFEFE" stroke-width="33.5092" d="M6792 6561c3,0 -205,45 -205,45l-299 249"/>
   <path fill="none" stroke="#FEFEFE" stroke-width="33.5092" d="M6185 6957c0,0 14,-48 140,-59"/>
   <path fill="none" stroke="#FEFEFE" stroke-width="33.5092" d="M6185 6476l-9 168c0,0 328,-344 612,-295"/>
   <path fill="none" stroke="#FEFEFE" stroke-width="33.5092" d="M6320 6289l91 1 137 -84c0,0 323,-47 416,-35"/>
   <path fill="none" stroke="#FEFEFE" stroke-width="33.5092" d="M7273 6144l-135 67 -189 -41c0,0 50,173 78,191 28,17 7,285 7,285 0,0 6,278 6,284 0,6 183,6 183,6l218 -45c0,0 52,-419 100,-453"/>
   <path fill="none" stroke="#FEFEFE" stroke-width="33.5092" d="M7600 6435c7,-5 -59,3 -59,3l-229 -237 -42 -56"/>
   <line fill="none" stroke="#FEFEFE" stroke-width="33.5092" x1="6506" y1="6111" x2="6547" y2= "6202" />
   <path fill="none" stroke="#FEFEFE" stroke-width="33.5092" d="M7306 6177c-7,6 117,-58 117,-58"/>
   <path fill="none" stroke="#FEFEFE" stroke-width="33.5092" d="M7424 6082l163 1 124 161c0,0 -107,147 -115,153"/>
   <path fill="none" stroke="#FEFEFE" stroke-width="33.5092" d="M7578 6102l51 -61 229 24c0,0 55,-123 38,-160 -18,-37 -307,-260 -307,-260l43 -80 -1505 -154"/>
   <polyline fill="none" stroke="#FEFEFE" stroke-width="33.5092" points="9259,6329 8748,6792 8459,6944 9466,6525 9501,6944 "/>
   <path fill="none" stroke="#FEFEFE" stroke-width="33.5092" d="M11431 3397l-601 439 -574 1552c0,0 -336,721 665,903"/>
   <path fill="none" stroke="#FEFEFE" stroke-width="33.5092" d="M11431 5196l-317 757c0,0 -167,418 -233,459 -66,40 -374,532 -374,532l414 0 66 -134 197 -746c0,0 67,-147 157,-147 90,0 90,-35 90,-35"/>
   <polyline fill="none" stroke="#FEFEFE" stroke-width="33.5092" points="11431,6810 11396,6793 11121,6308 "/>
   <polyline fill="none" stroke="#FEFEFE" stroke-width="33.5092" points="10820,5815 11124,5927 11245,5971 "/>
   <polyline fill="none" stroke="#FEFEFE" stroke-width="33.5092" points="11431,5714 11334,5848 11124,5927 "/>
   <line fill="none" stroke="#FEFEFE" stroke-width="33.5092" x1="10256" y1="5388" x2="11187" y2= "5777" />
   <path fill="none" stroke="#FEFEFE" stroke-width="33.5092" d="M11033 5462c0,0 342,78 398,0"/>
   <line fill="none" stroke="#FEFEFE" stroke-width="33.5092" x1="10371" y1="5076" x2="11316" y2= "5471" />
   <path fill="none" stroke="#FEFEFE" stroke-width="33.5092" d="M10502 4757c-11,-4 929,387 929,387"/>
   <polyline fill="none" stroke="#FEFEFE" stroke-width="33.5092" points="11146,4708 11038,4935 10906,4983 "/>
   <polyline fill="none" stroke="#FEFEFE" stroke-width="33.5092" points="406,3081 841,3207 1342,3136 1443,3318 "/>
   <line fill="none" stroke="#FEFEFE" stroke-width="33.5092" x1="421" y1="2223" x2="578" y2= "2445" />
   <path fill="none" stroke="#FEFEFE" stroke-width="33.5092" d="M5471 1741l-7 1160 53 187 349 3 25 -888 -501 5c0,0 -141,-31 -156,138 -15,169 -28,331 -28,331"/>
   <path fill="none" stroke="#FEFEFE" stroke-width="33.5092" d="M4981 2687l35 -444c0,0 33,-202 273,-313"/>
   <line fill="none" stroke="#FEFEFE" stroke-width="33.5092" x1="5247" y1="2287" x2="4859" y2= "2074" />
   <polyline fill="none" stroke="#FEFEFE" stroke-width="33.5092" points="4894,790 4737,1128 4749,1274 "/>
   <polyline fill="none" stroke="#FEFEFE" stroke-width="33.5092" points="6259,1826 6674,1848 6831,1654 7041,1631 7590,1278 "/>
   <path fill="none" stroke="#FEFEFE" stroke-width="33.5092" d="M6239 2340l218 5 -26 369 -197 0 -10 333 197 5 142 -137 192 -93 121 -161 410 -265 106 -200 129 -93c0,0 -126,-139 -177,-245 -50,-106 -152,-324 -152,-324 0,0 -88,-163 -55,-327"/>
   <path fill="none" stroke="#FEFEFE" stroke-width="33.5092" d="M6492 4180l24 -604c0,0 407,-539 711,-582"/>
   <polyline fill="none" stroke="#FEFEFE" stroke-width="33.5092" points="6917,3957 6997,3360 7234,2969 7439,2782 7624,2303 7571,2247 7688,2173 7676,2091 8000,1465 "/>
   <path fill="none" stroke="#FEFEFE" stroke-width="33.5092" d="M7272 1259c0,0 98,316 135,368 37,52 255,241 317,371"/>
   <path fill="none" stroke="#FEFEFE" stroke-width="33.5092" d="M7418 1388l96 193c0,0 248,300 257,305"/>
   <polyline fill="none" stroke="#FEFEFE" stroke-width="33.5092" points="7639,1289 7911,1636 7894,1671 8095,1888 "/>
   <path fill="none" stroke="#FEFEFE" stroke-width="33.5092" d="M8596 1517c0,0 -63,69 -117,58"/>
   <polyline fill="none" stroke="#FEFEFE" stroke-width="33.5092" points="8012,1284 8015,1465 8105,1494 "/>
   <path fill="none" stroke="#FEFEFE" stroke-width="33.5092" d="M8122 3193c0,0 -68,-167 -107,-189 -39,-22 -27,-555 -45,-637 -17,-83 -46,-335 -73,-377"/>
   <path fill="none" stroke="#FEFEFE" stroke-width="33.5092" d="M8861 2724c0,0 -179,-128 -191,-138 -12,-9 -1109,-134 -1106,-133"/>
   <polyline fill="none" stroke="#FEFEFE" stroke-width="33.5092" points="9302,2445 9130,2373 9006,2373 7985,2020 7897,1990 "/>
   <path fill="none" stroke="#FEFEFE" stroke-width="33.5092" d="M8487 1576c0,0 -149,135 -154,156 -4,20 -238,156 -238,156 0,0 -101,113 -104,123"/>
   <polyline fill="none" stroke="#FEFEFE" stroke-width="33.5092" points="9017,2373 9029,2311 8974,2267 9140,2047 9123,1841 9234,1739 9172,926 9214,782 "/>
   <path fill="none" stroke="#FEFEFE" stroke-width="33.5092" d="M9130 2373l388 -197 283 -4 446 -173c0,0 7,-77 134,-108 127,-30 75,-134 75,-134l414 -549c0,0 112,-231 130,-307 17,-76 102,-111 102,-111"/>
   <path fill="none" stroke="#FEFEFE" stroke-width="33.5092" d="M10732 782l-153 91 -22 234 102 93c0,0 19,187 41,209"/>
   <polyline fill="none" stroke="#FEFEFE" stroke-width="33.5092" points="10344,949 10471,1105 10362,1228 10380,1407 "/>
   <line fill="none" stroke="#FEFEFE" stroke-width="33.5092" x1="9989" y1="1351" x2="9802" y2= "1511" />
   <path fill="none" stroke="#FEFEFE" stroke-width="33.5092" d="M10093 2415l106 -144 132 -99 58 -11 235 -313c0,0 214,71 235,89 22,19 244,-10 244,-10 0,0 287,75 311,88"/>
   <polyline fill="none" stroke="#FEFEFE" stroke-width="33.5092" points="10255,1976 10227,2129 10257,2159 10220,2240 "/>
   <g>
    <line fill="none" stroke="#FEFEFE" stroke-width="33.5092" x1="5906" y1="1923" x2="5289" y2= "1930" />
    <path fill="none" stroke="#FEFEFE" stroke-width="33.5092" d="M5471 1741c0,0 -387,18 -571,348"/>
    <polyline fill="none" stroke="#FEFEFE" stroke-width="33.5092" points="5066,790 5030,844 5033,1133 4921,1312 4937,1905 4742,2276 4749,2947 4123,2980 4108,3545 3578,3555 "/>
    <path fill="none" stroke="#FEFEFE" stroke-width="33.5092" d="M5564 782c0,0 -96,473 -56,577 41,103 -28,179 124,179 152,0 278,5 278,5l-19 660"/>
    <path fill="none" stroke="#FEFEFE" stroke-width="33.5092" d="M7038 2573l-74 -119c0,0 41,-63 12,-117 -28,-54 -272,-366 -272,-366l-30 -123"/>
    <polyline fill="none" stroke="#FEFEFE" stroke-width="33.5092" points="6288,1565 6549,1564 6789,1370 6855,1371 6797,1259 "/>
   </g>
   <path fill="none" stroke="#FEFEFE" stroke-width="33.5092" d="M8046 5308c0,0 36,130 13,182"/>
   <line fill="none" stroke="#FEFEFE" stroke-width="33.5092" x1="7034" y1="6646" x2="6778" y2= "6706" />
   <path fill="none" stroke="#FEFEFE" stroke-width="33.5092" d="M7629 6812c0,0 -141,134 -141,137 0,3 -53,-5 -53,-1 0,4 7,-64 7,-64"/>
   <g>
    <path fill="none" stroke="#FEFEFE" stroke-width="33.5092" d="M6622 4455c0,0 -13,-237 -65,-263"/>
    <g>
     <polyline fill="none" stroke="#FEFEFE" stroke-width="33.5092" points="7665,3482 7667,4177 7737,4180 7742,4460 "/>
     <g>
      <path fill="none" stroke="#FEFEFE" stroke-width="33.5092" d="M4 4224l2653 142c0,0 1787,-398 2613,-249 42,7 82,16 118,27 759,217 1171,40 1171,40l2743 -1739c0,0 886,114 1066,119 180,6 569,201 599,201l464 0"/>
      <polyline fill="none" stroke="#FEFEFE" stroke-width="33.5092" points="6178,4455 7733,4457 7749,4518 9001,4743 8958,5095 9298,5693 9376,5738 9382,5224 "/>
      <path fill="none" stroke="#FEFEFE" stroke-width="33.5092" d="M6614 4463c0,-5 -41,119 -75,224 -26,76 -47,142 -47,142"/>
      <path fill="none" stroke="#FEFEFE" stroke-width="33.5092" d="M6657 4122c0,0 1019,3 1015,3 -5,0 -5,-171 -5,-171l-375 1 0 379 0 123"/>
      <g>
       <path fill="none" stroke="#FEFEFE" stroke-width="33.5092" d="M6145 5239l1284 116c0,0 334,-101 309,-872"/>
       <polyline fill="none" stroke="#FEFEFE" stroke-width="33.5092" points="6162,4628 8086,5322 8857,5652 "/>
       <path fill="none" stroke="#FEFEFE" stroke-width="33.5092" d="M6598 5280c0,0 -173,-102 -113,-277 59,-176 -50,-266 -48,-270"/>
       <polyline fill="none" stroke="#FEFEFE" stroke-width="33.5092" points="7473,4457 7477,4812 6614,4463 7708,4910 "/>
       <path fill="none" stroke="#FEFEFE" stroke-width="33.5092" d="M6539 4687l1501 560c0,0 74,65 70,74 -4,9 -64,-13 -64,-13l32 -731"/>
       <g>
        <path fill="none" stroke="#FEFEFE" stroke-width="33.5092" d="M9446 6107l-1042 -16 -486 76 76 -101 506 -55c0,0 147,-61 222,-243 65,-155 167,-115 195,-100 5,3 8,5 8,5l389 176 -6 70 136 137 2 51z"/>
        <path fill="none" stroke="#FEFEFE" stroke-width="33.5092" d="M7896 5905l172 -262c0,0 -72,-64 -9,-153"/>
        <path fill="none" stroke="#FEFEFE" stroke-width="33.5092" d="M7622 5567c0,-3 253,28 253,28l30 -860 -69 -48 50 -93 -17 -54"/>
        <path fill="none" stroke="#FEFEFE" stroke-width="33.5092" d="M8011 6040l60 -315 184 -240c0,0 -4,-78 -2,-84"/>
       </g>
       <polyline fill="none" stroke="#FEFEFE" stroke-width="33.5092" points="6611,4343 7740,4337 7737,4202 6575,4211 "/>
      </g>
      <line fill="none" stroke="#FEFEFE" stroke-width="33.5092" x1="7218" y1="3771" x2="7292" y2= "3955" />
     </g>
    </g>
   </g>
   <line fill="none" stroke="#FEFEFE" stroke-width="33.5092" x1="7666" y1="3803" x2="7230" y2= "3800" />
   <line fill="none" stroke="#FEFEFE" stroke-width="33.5092" x1="7390" y1="3657" x2="7208" y2= "3013" />
   <polyline fill="none" stroke="#FEFEFE" stroke-width="33.5092" points="6516,3576 6416,3563 6421,3052 "/>
   <path fill="none" stroke="#FEFEFE" stroke-width="33.5092" d="M11418 3201l-246 207 -44 108c0,0 290,104 296,104 7,0 -417,-145 -417,-145"/>
   <polyline fill="none" stroke="#FEFEFE" stroke-width="33.5092" points="5464,2901 5269,2901 5270,3840 5270,4117 "/>
   <polygon fill="none" stroke="#FEFEFE" stroke-width="33.5092" points="4736,3550 4736,3834 5270,3840 5270,3550 "/>
   <path fill="none" stroke="#FEFEFE" stroke-width="33.5092" d="M3399 3303c0,0 -71,124 -167,165 -95,41 -273,155 -273,155l-323 335 100 223 -5 169"/>
   <line fill="none" stroke="#FEFEFE" stroke-width="33.5092" x1="2152" y1="4888" x2="2396" y2= "4352" />
  </g>
  <g id="_2183484823904">
   <g transform="matrix(1.00248 0 0 1 4521.13 -2162.6)">
    <text x="8046" y="3870"  fill="#9F938F" font-weight="normal" font-size="205.567px" font-family="Arial">P</text>
    <text x="8220" y="3870"  fill="#9F938F" font-weight="normal" font-size="205.567px" font-family="Arial">E</text>
    <text x="8392" y="3870"  fill="#9F938F" font-weight="normal" font-size="205.567px" font-family="Arial">R</text>
    <text x="8575" y="3870"  fill="#9F938F" font-weight="normal" font-size="205.567px" font-family="Arial">F</text>
    <text x="8738" y="3870"  fill="#9F938F" font-weight="normal" font-size="205.567px" font-family="Arial">E</text>
    <text x="8910" y="3870"  fill="#9F938F" font-weight="normal" font-size="205.567px" font-family="Arial">C</text>
    <text x="9095" y="3870"  fill="#9F938F" font-weight="normal" font-size="205.567px" font-family="Arial">T</text>
    <text x="9256" y="3870"  fill="#9F938F" font-weight="normal" font-size="205.567px" font-family="Arial">L</text>
    <text x="9406" y="3870"  fill="#9F938F" font-weight="normal" font-size="205.567px" font-family="Arial">Y</text>
    <text x="9579" y="3870"  fill="#9F938F" font-weight="normal" font-size="205.567px" font-family="Arial"> </text>
    <text x="9673" y="3870"  fill="#9F938F" font-weight="normal" font-size="205.567px" font-family="Arial">S</text>
    <text x="9845" y="3870"  fill="#9F938F" font-weight="normal" font-size="205.567px" font-family="Arial">I</text>
    <text x="9939" y="3870"  fill="#9F938F" font-weight="normal" font-size="205.567px" font-family="Arial">T</text>
    <text x="10100" y="3870"  fill="#9F938F" font-weight="normal" font-size="205.567px" font-family="Arial">U</text>
    <text x="10285" y="3870"  fill="#9F938F" font-weight="normal" font-size="205.567px" font-family="Arial">A</text>
    <text x="10458" y="3870"  fill="#9F938F" font-weight="normal" font-size="205.567px" font-family="Arial">T</text>
    <text x="10619" y="3870"  fill="#9F938F" font-weight="normal" font-size="205.567px" font-family="Arial">E</text>
    <text x="10793" y="3870"  fill="#9F938F" font-weight="normal" font-size="205.567px" font-family="Arial">D</text>
   </g>
   <g transform="matrix(1.00248 0 0 1 4255.98 -906.343)">
    <text x="8046" y="3870"  fill="#848688" font-weight="normal" font-size="136.368px" font-family="Garamond">15-min</text>
    <text x="8422" y="3870"  fill="#848688" font-weight="normal" font-size="136.368px" font-family="Garamond">ute driv</text>
    <text x="8826" y="3870"  fill="#848688" font-weight="normal" font-size="136.368px" font-family="Garamond">e</text>
   </g>
   <path fill="#BDBFC1" fill-rule="nonzero" d="M12589 2250l34 26c2,1 5,2 7,1l49 -8c0,0 0,0 0,0l69 0c3,0 5,-3 5,-5 0,-3 -2,-6 -5,-6l0 0 -38 0 -52 -87 24 0c0,0 0,0 0,0l90 88c-2,0 -3,2 -3,4 0,3 2,6 5,6l0 0 39 0 0 0c4,0 7,0 9,1l26 10c3,2 4,5 4,6 0,1 -1,4 -4,6l-26 10c-2,1 -5,2 -9,2l-133 0 0 0c-1,0 -1,0 -1,0l-49 -8c-2,-1 -5,0 -7,1l-33 26 -11 0 21 -31c2,-4 2,-7 0,-11l-21 -31 10 0zm2 37l-23 35c-2,2 -2,5 -1,7 2,3 4,4 7,4l0 0 16 0c2,0 4,-1 5,-2l34 -25 48 8c0,0 0,0 0,0 1,0 2,0 3,0l18 0 -52 88c-1,2 -1,5 0,7 1,2 4,3 6,3l0 0 30 0c2,0 5,-1 7,-3l26 -25c2,-2 2,-5 0,-7 -2,-2 -5,-2 -7,0l-26 25c0,0 0,0 0,0l-24 0 52 -88 63 0 -48 46c-2,2 -2,5 0,7 1,1 3,2 4,2 1,0 3,-1 3,-2l55 -53 26 0c5,0 9,-1 13,-2l26 -11c6,-2 10,-8 10,-15 0,-7 -4,-12 -10,-15l-26 -10c-4,-2 -8,-3 -13,-3l0 0 -26 0 -98 -94c-2,-2 -5,-3 -7,-3l-30 0 0 0c-2,0 -5,1 -6,3 -1,2 -1,5 0,7l52 87 -19 1c0,0 -1,0 -2,0 0,0 0,0 0,0l-48 8 -34 -25c-1,-1 -3,-2 -5,-2l-16 0c-3,0 -6,2 -7,4 -1,2 -1,5 0,7l24 36z"/>
   <path fill="#BDBFC1" fill-rule="nonzero" d="M12699 2279c4,0 7,3 7,6 1,4 -2,7 -6,8 -3,0 -7,-3 -7,-6 0,-4 2,-7 6,-8z"/>
   <path fill="#BDBFC1" fill-rule="nonzero" d="M12718 2284c1,-3 5,-5 8,-4 4,1 5,4 4,8 -1,3 -4,5 -8,4 -3,-1 -5,-5 -4,-8z"/>
   <path fill="#BDBFC1" fill-rule="nonzero" d="M12743 2281c3,-2 7,-2 10,0 2,3 2,7 0,10 -3,2 -7,2 -10,0 -2,-3 -2,-7 0,-10z"/>
   <path fill="#BDBFC1" fill-rule="nonzero" d="M12772 2292c4,0 7,-2 7,-6 0,-4 -3,-7 -7,-7 -3,0 -6,3 -6,7 0,4 3,6 6,6z"/>
   <path fill="#BDBFC1" fill-rule="nonzero" d="M12793 2473l22 0 0 18 -22 0 0 -18zm-105 0l22 0 0 18 -22 0 0 -18zm59 18l-27 0 0 -18 27 0 0 18zm10 -18l26 0 0 18 -26 0 0 -18zm-204 -54l52 0 0 22 -52 0 0 -22zm24 -58c2,0 3,0 4,0l24 10 0 5 -52 0 0 -5 24 -10zm28 48l-52 0 0 -23 52 0 0 23zm249 32l-239 0 0 -22 4 0c2,0 5,-2 5,-5 0,-3 -3,-5 -5,-5l-4 0 0 -23 4 0c2,0 5,-2 5,-5 0,-3 -3,-5 -5,-5l-4 0 0 -6c0,-3 -2,-6 -5,-8l-25 -10c-4,-2 -8,-2 -12,0l-25 10c-3,2 -5,5 -5,8l0 6 -3 0c-3,0 -5,2 -5,5 0,3 2,5 5,5l3 0 0 23 -3 0c-3,0 -5,2 -5,5 0,3 2,5 5,5l3 0 0 22 -16 0c-6,0 -12,5 -12,12l0 36c0,7 6,12 12,12l17 0c3,0 5,-2 5,-5 0,-3 -2,-5 -5,-5l-17 0c-1,0 -2,-1 -2,-2l0 -36c0,-1 1,-2 2,-2l327 0c1,0 2,1 2,2l0 36c0,1 -1,2 -2,2l-28 0 0 -20c0,-4 -4,-8 -9,-8l-130 0c-5,0 -9,4 -9,8l0 20 -107 0c-3,0 -5,2 -5,5 0,3 2,5 5,5l283 0c7,0 12,-5 12,-12l0 -36c0,-7 -5,-12 -12,-12z"/>
   <path fill="#BDBFC1" fill-rule="nonzero" d="M15170 2463l0 -33c0,-3 -2,-5 -4,-5l-116 0c-3,0 -5,2 -5,5l0 33 -32 0 0 -154 190 0 0 154 -33 0zm-21 -28l12 0 0 28 -12 0 0 -28zm-10 28l-63 0 0 -28 63 0 0 28zm-84 -28l12 0 0 28 -12 0 0 -28zm148 -135l-190 0 0 -10 190 0 0 10zm-125 -78l15 0c4,0 7,-3 7,-7l0 -15 16 0 0 15c0,4 3,7 7,7l15 0 0 16 -15 0c-4,0 -7,3 -7,7l0 15 -16 0 0 -15c0,-4 -3,-7 -7,-7l-15 0 0 -16zm178 241l-44 0 0 -193c0,-3 -2,-5 -4,-5 -3,0 -5,2 -5,5l0 11 -190 0 0 -47 55 0 0 6c0,4 3,7 7,7l15 0 0 15c0,4 4,7 8,7l20 0c4,0 7,-3 7,-7l0 -15 15 0c4,0 8,-3 8,-7l0 -6 55 0 0 16c0,2 2,4 5,4 2,0 4,-2 4,-4l0 -21c0,-2 -2,-5 -4,-5l-34 0 0 -51c0,-2 -3,-4 -5,-4l-82 0c-3,0 -5,2 -5,4 0,3 2,5 5,5l77 0 0 46 -16 0 0 -4c0,-4 -4,-8 -8,-8l-15 0 0 -15c0,-4 -3,-7 -7,-7l-20 0c-4,0 -8,3 -8,7l0 15 -15 0c-4,0 -7,4 -7,8l0 4 -16 0 0 -46 15 0c3,0 5,-2 5,-5 0,-2 -2,-4 -5,-4l-20 0c-3,0 -5,2 -5,4l0 51 -34 0c-3,0 -5,3 -5,5l0 234 -43 0c-8,0 -15,7 -15,15 0,8 7,15 15,15l46 0c3,0 5,-2 5,-5 0,-2 -2,-4 -5,-4l-46 0c-3,0 -5,-3 -5,-6 0,-3 2,-5 5,-5l296 0c2,0 5,2 5,5 0,3 -3,6 -5,6l-229 0c-3,0 -5,2 -5,4 0,3 2,5 5,5l229 0c8,0 14,-7 14,-15 0,-8 -6,-15 -14,-15z"/>
   <path fill="#BDBFC1" fill-rule="nonzero" d="M15061 2349l-25 0 0 -22 25 0 0 22zm5 -32l-34 0c-3,0 -5,2 -5,5l0 32c0,2 2,4 5,4l34 0c3,0 5,-2 5,-4l0 -32c0,-3 -2,-5 -5,-5z"/>
   <path fill="#BDBFC1" fill-rule="nonzero" d="M15179 2349l-24 0 0 -22 24 0 0 22zm5 -32l-34 0c-3,0 -5,2 -5,5l0 32c0,2 2,4 5,4l34 0c3,0 5,-2 5,-4l0 -32c0,-3 -2,-5 -5,-5z"/>
   <path fill="#BDBFC1" fill-rule="nonzero" d="M15120 2349l-25 0 0 -22 25 0 0 22zm5 -32l-34 0c-3,0 -5,2 -5,5l0 32c0,2 2,4 5,4l34 0c3,0 5,-2 5,-4l0 -32c0,-3 -2,-5 -5,-5z"/>
   <path fill="#BDBFC1" fill-rule="nonzero" d="M15061 2404l-25 0 0 -22 25 0 0 22zm5 -32l-34 0c-3,0 -5,3 -5,5l0 32c0,2 2,5 5,5l34 0c3,0 5,-3 5,-5l0 -32c0,-2 -2,-5 -5,-5z"/>
   <path fill="#BDBFC1" fill-rule="nonzero" d="M15179 2404l-24 0 0 -22 24 0 0 22zm5 -32l-34 0c-3,0 -5,3 -5,5l0 32c0,2 2,5 5,5l34 0c3,0 5,-3 5,-5l0 -32c0,-2 -2,-5 -5,-5z"/>
   <path fill="#BDBFC1" fill-rule="nonzero" d="M15120 2404l-25 0 0 -22 25 0 0 22zm5 -32l-34 0c-3,0 -5,3 -5,5l0 32c0,2 2,5 5,5l34 0c3,0 5,-3 5,-5l0 -32c0,-2 -2,-5 -5,-5z"/>
   <path fill="#BDBFC1" fill-rule="nonzero" d="M12778 3612l-24 0 0 -12 24 0 0 12zm7 -26l-38 0c-4,0 -7,3 -7,7l0 26c0,4 3,7 7,7l38 0c4,0 7,-3 7,-7l0 -26c0,-4 -3,-7 -7,-7z"/>
   <path fill="#BDBFC1" fill-rule="nonzero" d="M12627 3612l-24 0 0 -12 24 0 0 12zm7 -26l-38 0c-4,0 -7,3 -7,7l0 26c0,4 3,7 7,7l38 0c4,0 8,-3 8,-7l0 -26c0,-4 -4,-7 -8,-7z"/>
   <path fill="#BDBFC1" fill-rule="nonzero" d="M12719 3611l-57 0c-4,0 -7,3 -7,7 0,4 3,7 7,7l57 0c4,0 7,-3 7,-7 0,-4 -3,-7 -7,-7z"/>
   <path fill="#BDBFC1" fill-rule="nonzero" d="M12719 3591l-57 0c-4,0 -7,3 -7,7 0,4 3,7 7,7l57 0c4,0 7,-3 7,-7 0,-4 -3,-7 -7,-7z"/>
   <path fill="#BDBFC1" fill-rule="nonzero" d="M12837 3570c0,2 -2,3 -4,3l-17 0 0 -29 17 0c2,0 4,1 4,3l0 23zm-36 -25l-132 -1c-4,-20 -23,-33 -43,-29 -15,3 -26,14 -29,29l-17 0 0 -71 221 1 0 71zm-190 -1c4,-12 17,-18 29,-14 7,2 12,7 14,14l-43 0zm190 90c0,8 -6,15 -14,15l-193 0c-8,0 -14,-7 -14,-15l0 -76 221 1 0 75zm-14 42c0,3 -2,4 -4,4l-24 0c-2,0 -4,-1 -4,-3l0 -14 32 0c0,0 -1,0 0,0l0 13zm-161 0c0,3 -2,4 -4,4l-24 0c-2,0 -4,-1 -4,-4l0 -13c1,0 0,0 0,0l32 0 0 13zm-46 -217l0 -7c0,-4 1,-8 4,-11 3,-3 7,-4 10,-4l0 0 192 0c9,1 15,7 15,15l0 8 -221 -1zm-14 114l-18 0c-2,0 -4,-1 -4,-3l0 -23c0,-2 2,-3 4,-3l18 0 0 29zm267 -44l-17 0 0 -77c0,-16 -13,-29 -29,-29l-193 -1c-16,0 -28,13 -28,29l0 78 -18 0c-10,0 -18,8 -18,18l0 22c0,10 8,18 18,18l18 0 0 47c0,10 5,20 14,25l0 17c0,10 8,18 18,18l24 0c10,0 18,-8 18,-18l0 -13 101 0 0 13c0,10 8,18 18,18l24 0c10,0 18,-8 18,-18l0 -17c9,-5 15,-15 15,-25l0 -47 17 0c10,0 18,-7 18,-17l0 -23c0,-10 -8,-18 -18,-18z"/>
   <path fill="#BDBFC1" fill-rule="nonzero" d="M15207 3426c5,0 10,-4 10,-9l0 -20c0,-5 -5,-9 -10,-9 -5,0 -9,4 -9,9l0 20c0,5 4,9 9,9z"/>
   <path fill="#BDBFC1" fill-rule="nonzero" d="M15008 3586c-5,0 -9,5 -9,10l0 20c0,5 4,9 9,9 5,0 10,-4 10,-9l0 -20c0,-5 -5,-10 -10,-10z"/>
   <path fill="#BDBFC1" fill-rule="nonzero" d="M15207 3486c5,0 10,-4 10,-9l0 -20c0,-5 -5,-10 -10,-10 -5,0 -9,5 -9,10l0 20c0,5 4,9 9,9z"/>
   <path fill="#BDBFC1" fill-rule="nonzero" d="M15008 3646c-5,0 -9,4 -9,9l0 20c0,5 4,9 9,9 5,0 10,-4 10,-9l0 -20c0,-5 -5,-9 -10,-9z"/>
   <path fill="#BDBFC1" fill-rule="nonzero" d="M15128 3527c-5,0 -10,4 -10,9 0,5 5,9 10,9l20 0c5,0 9,-4 9,-9 0,-5 -4,-9 -9,-9l-20 0z"/>
   <path fill="#BDBFC1" fill-rule="nonzero" d="M15068 3527c-5,0 -9,4 -9,9 0,5 4,9 9,9l20 0c5,0 9,-4 9,-9 0,-5 -4,-9 -9,-9l-20 0z"/>
   <path fill="#BDBFC1" fill-rule="nonzero" d="M15187 3545c17,0 30,-13 30,-29 0,-5 -5,-9 -10,-9 -5,0 -9,4 -9,9 0,6 -5,11 -11,11 -5,0 -9,4 -9,9 0,5 4,9 9,9z"/>
   <path fill="#BDBFC1" fill-rule="nonzero" d="M15028 3527c-16,0 -29,13 -29,29 0,5 4,9 9,9 5,0 10,-4 10,-9 0,-6 4,-11 10,-11l0 0c5,0 9,-4 9,-9 0,-5 -4,-9 -9,-9z"/>
   <path fill="#BDBFC1" fill-rule="nonzero" d="M15257 3378c-5,0 -9,4 -9,9l0 129c0,34 -27,61 -61,61l-129 0c-5,0 -9,4 -9,9l0 99c0,5 4,9 9,9 5,0 9,-4 9,-9l0 -90 120 0c44,0 79,-35 79,-79l0 -129c0,-5 -4,-9 -9,-9z"/>
   <path fill="#BDBFC1" fill-rule="nonzero" d="M15158 3496c5,0 9,-4 9,-9l0 -100c0,-5 -4,-9 -9,-9 -6,0 -10,4 -10,9l0 90 -120 0c-43,0 -79,35 -79,79l0 129c0,5 4,9 9,9 6,0 10,-4 10,-9l0 -129c0,-33 27,-60 60,-60l130 0z"/>
   <path fill="#BDBFC1" fill-rule="nonzero" d="M15274 5945l-91 0 0 -126 91 0 0 126zm-124 0l0 -70c0,-23 -19,-42 -42,-42 -23,0 -42,19 -42,42l0 70 -20 0 0 -154 123 0 0 154 -19 0zm-70 0l0 -70c0,-16 12,-28 28,-28 15,0 28,12 28,28l0 70 -56 0zm-138 -126l90 0 0 126 -90 0 0 -126zm207 -42l-83 0c4,-20 21,-35 42,-35 21,0 38,15 41,35zm-140 28l0 -99 67 0c4,0 7,-3 7,-7 0,-3 -3,-7 -7,-7l-54 0c4,-43 41,-78 86,-78 44,0 82,35 85,78l-54 0c-3,0 -7,4 -7,7 0,4 4,7 7,7l67 0 0 99 -23 0 0 -14c0,-8 -6,-14 -14,-14l-5 0c-2,-13 -8,-24 -17,-33 -10,-11 -24,-16 -39,-16 -15,0 -29,5 -40,16 -9,9 -14,20 -16,33l-6 0c-7,0 -14,6 -14,14l0 14 -23 0zm265 0l-54 0 0 -99c0,-7 -5,-13 -13,-13 -1,-25 -12,-47 -29,-65 -19,-18 -44,-28 -70,-28 -27,0 -51,10 -70,28 -18,18 -28,40 -30,65 -7,0 -13,6 -13,13l0 99 -53 0c-8,0 -14,6 -14,14l0 133c0,4 3,7 7,7l346 0c4,0 7,-3 7,-7l0 -133c0,-8 -7,-14 -14,-14z"/>
   <path fill="#BDBFC1" fill-rule="nonzero" d="M14995 5917l-16 0 0 -62c0,-5 3,-8 8,-8 5,0 8,3 8,8l0 62zm-8 -84c-12,0 -22,10 -22,22l0 69c0,4 3,7 7,7l30 0c4,0 7,-3 7,-7l0 -69c0,-12 -10,-22 -22,-22z"/>
   <path fill="#BDBFC1" fill-rule="nonzero" d="M15220 5855c0,-5 4,-8 9,-8 4,0 8,3 8,8l0 62 -17 0 0 -62zm-7 76l31 0c4,0 7,-3 7,-7l0 -69c0,-12 -10,-22 -22,-22 -13,0 -23,10 -23,22l0 69c0,4 3,7 7,7z"/>
   <path fill="#BDBFC1" fill-rule="nonzero" d="M15108 5706c4,0 7,-3 7,-7 0,-3 -3,-7 -7,-7l0 0c-4,0 -7,4 -7,7 0,4 3,7 7,7z"/>
   <path fill="#BDBFC1" fill-rule="nonzero" d="M15067 4748c3,0 5,2 5,5 0,3 -2,5 -5,5 -3,0 -5,-2 -5,-5 0,-3 2,-5 5,-5zm0 21c8,0 15,-7 15,-16 0,-8 -7,-15 -15,-15 -8,0 -15,7 -15,15 0,9 7,16 15,16z"/>
   <path fill="#BDBFC1" fill-rule="nonzero" d="M15225 4758c-3,0 -5,-2 -5,-5 0,-3 2,-5 5,-5 3,0 5,2 5,5 0,3 -2,5 -5,5zm0 -20c-8,0 -15,7 -15,15 0,9 7,16 15,16 8,0 15,-7 15,-16 0,-8 -7,-15 -15,-15z"/>
   <path fill="#BDBFC1" fill-rule="nonzero" d="M15245 4718l-183 0 0 -46c0,-1 0,-1 0,-2l-39 -135c-2,-6 -8,-11 -15,-11l-2 0 0 -10 18 0c2,0 4,2 5,4l43 155 0 29c0,3 2,5 5,5l168 0c3,0 6,3 6,6 0,2 -3,5 -6,5zm6 35c0,14 -12,26 -26,26 -14,0 -25,-12 -25,-26 0,-14 11,-25 25,-25 14,0 26,11 26,25zm-159 0c0,14 -11,26 -25,26 -14,0 -25,-12 -25,-26 0,-14 11,-25 25,-25 14,0 25,11 25,25zm-127 -234c0,-3 2,-5 5,-5l26 0 0 10 -26 0c-3,0 -5,-2 -5,-5zm97 -5l10 0 0 5c0,3 2,5 5,5 3,0 5,-2 5,-5l0 -5 10 0 0 5c0,3 3,5 6,5 2,0 5,-2 5,-5l0 -5 10 0 5 51 -61 0 5 -51zm20 -15c0,-3 3,-5 5,-5 3,0 5,2 5,5l0 5 -10 0 0 -5zm26 -5c3,0 5,2 5,5l0 5 -10 0 0 -5c0,-3 2,-5 5,-5zm30 71l-10 0 -4 -51 10 0 4 51zm16 -30l0 5c0,2 2,5 5,5 3,0 5,-3 5,-5l0 -5 10 0 0 5c0,2 2,5 5,5 3,0 5,-3 5,-5l0 -5 11 0 3 30 -50 0 -2 -30 8 0zm10 -16c0,-3 2,-5 5,-5 3,0 5,2 5,5l0 5 -10 0 0 -5zm25 -5c3,0 6,2 6,5l0 5 -11 0 0 -5c0,-3 3,-5 5,-5zm29 51l-10 0 -3 -30 10 0 3 30zm22 31l-26 0 5 -21 25 0 -4 21zm-10 42l0 -2 -25 0 7 -30 25 0 -7 32zm-30 21l3 -13 25 0 -2 11 -26 2zm-107 -13l4 19 -16 2 -6 -21 18 0zm-8 -40l6 30 -19 0 -8 -30 21 0zm-7 -31l5 21 -22 0 -6 -21 23 0zm41 0l2 21 -28 0 -4 -21 30 0zm53 61l3 -30 27 0 -7 30 -23 0zm-1 10l22 0 -3 13 -21 2 2 -15zm-35 0l24 0 -1 15 1 0 -22 2 -2 -17zm-10 0l2 17 -21 2 -3 -19 22 0zm6 -40l33 0 -3 30 -27 0 -3 -30zm-7 30l-24 0 -6 -30 27 0 3 30zm83 -61l-4 21 -28 0 3 -21 29 0zm-40 0l-2 21 -35 0 -2 -21 39 0zm93 138c0,-9 -7,-16 -16,-16l-163 0 0 -20 149 -10c2,0 4,-2 4,-4l21 -92c0,-2 -2,-5 -4,-6 -1,0 -1,0 -1,0l-22 0 -4 -36c0,-3 -2,-5 -5,-5l-15 0 0 -5c0,-8 -7,-15 -16,-15 -3,0 -7,1 -10,4 -6,-6 -16,-5 -21,1 -3,3 -4,7 -4,10l0 5 -9 0 -1 -15c-1,-3 -3,-5 -6,-5l-15 0 0 -5c0,-8 -7,-15 -15,-15 -4,0 -8,1 -10,4 -7,-6 -16,-6 -22,1 -2,3 -4,6 -4,10l0 5 -15 0c-3,0 -5,2 -5,5l-4 41 -10 -35c-2,-6 -7,-11 -14,-11l-54 0c-8,0 -15,7 -15,15 0,9 7,16 15,16l38 0c3,0 5,1 5,3l39 135 0 48c-18,8 -26,30 -17,48 8,17 29,25 47,16 18,-8 26,-29 17,-47 -2,-4 -4,-7 -7,-10l108 0c-14,14 -14,36 0,50 13,14 36,14 50,1 14,-14 14,-37 1,-51 -1,0 -1,0 -2,-1 7,-2 12,-8 12,-14z"/>
   <path fill="#BDBFC1" fill-rule="nonzero" d="M12811 4648l-33 0c-25,0 -46,-21 -46,-47 0,-25 21,-46 46,-46 21,0 40,10 52,27l9 13c4,5 6,12 6,19 0,18 -15,34 -34,34zm-177 -110c-3,-3 -1,-6 -1,-7 1,-1 3,-4 7,-3l100 27c-6,5 -11,11 -15,18 -33,0 -66,-12 -91,-35zm33 -75c-1,-4 2,-6 3,-7 1,0 4,-2 7,1l86 86c-2,0 -4,1 -6,2l-31 -8c-29,-17 -49,-43 -59,-74zm-18 323l0 0c-22,0 -40,-18 -40,-40 0,-22 18,-39 42,-39 19,0 36,16 37,36 1,5 0,11 -1,16 -1,2 -1,4 0,6 2,2 4,3 6,3l0 0c12,0 22,8 25,18l-69 0zm-88 0c-14,0 -25,-11 -25,-25 0,-12 9,-22 20,-24 6,14 15,27 26,38 -4,7 -12,11 -21,11zm290 -199l-9 -13c-14,-20 -37,-32 -61,-33l-94 -94c-7,-7 -16,-8 -24,-3 -8,5 -12,14 -9,23 7,23 19,43 36,60l-47 -12c-8,-3 -17,1 -22,9 -5,8 -3,18 4,24 26,24 60,38 95,39 -1,4 -2,9 -2,14 0,0 0,1 0,1l-69 0c-15,0 -29,3 -43,10 -3,2 -5,6 -3,9 1,3 4,4 6,4 1,0 2,0 3,0 12,-6 24,-9 37,-9l71 0c7,26 30,46 58,46l32 0c-2,22 -11,42 -25,60l0 -7c0,-4 -3,-7 -7,-7 -4,0 -7,3 -7,7l0 46c0,4 3,7 7,7 11,0 21,8 24,18l-41 0 -16 -65c-1,-4 -5,-6 -9,-5 -4,1 -6,4 -5,8l8 32c-7,3 -14,5 -21,7 -4,-4 -10,-7 -16,-8 1,-4 1,-9 0,-14 -2,-27 -25,-48 -51,-48 -15,0 -29,5 -40,15 -10,10 -16,24 -16,38 0,10 2,18 6,26 -22,-16 -37,-41 -37,-71 0,-12 2,-24 8,-36 1,-3 0,-7 -4,-9 -3,-2 -7,0 -9,3 -6,14 -9,28 -9,42 0,8 1,15 2,22 -17,4 -30,20 -30,38 0,22 17,39 39,39 13,0 25,-6 32,-17 16,11 35,17 56,17 0,0 0,0 0,0l77 0c4,0 7,-3 7,-7 0,-6 -2,-12 -5,-18 5,-1 10,-3 15,-5l6 25c1,3 3,5 7,5l54 0c4,0 7,-3 7,-7 0,-19 -14,-35 -32,-38l0 -12c23,-23 37,-52 39,-83 21,-6 35,-24 35,-46 0,-10 -3,-19 -8,-27z"/>
   <path fill="#BDBFC1" fill-rule="nonzero" d="M12792 4588c-2,0 -4,1 -5,2 -1,1 -2,3 -2,5 0,2 1,3 2,5 1,1 3,2 5,2 2,0 4,-1 5,-2 1,-2 2,-3 2,-5 0,-2 -1,-4 -2,-5 -1,-1 -3,-2 -5,-2z"/>
   <path fill="#BDBFC1" fill-rule="nonzero" d="M12583 4644c-1,0 -3,-1 -5,-2 -1,-2 -2,-4 -2,-5 0,-2 1,-4 2,-5 2,-2 4,-2 5,-2 2,0 4,0 5,2 2,1 3,3 3,5 0,1 -1,3 -3,5 -1,1 -3,2 -5,2z"/>
   <path fill="#BDBFC1" fill-rule="nonzero" d="M12760 5795c0,-1 0,-1 0,-1 0,-1 0,-1 -1,-2 0,0 0,0 0,-1 -1,0 -1,0 -2,-1 0,0 0,0 -1,0 0,0 -1,-1 -1,-1 -1,0 -2,0 -3,0 0,0 -1,1 -1,1 0,0 -1,0 -1,0 -1,1 -1,1 -1,1 -1,1 -1,1 -1,1 0,1 -1,1 -1,2 0,0 0,0 0,1 0,0 0,1 0,1 0,1 0,1 0,2 0,0 0,1 0,1 0,0 1,1 1,1 0,1 0,1 1,1 0,1 0,1 1,1 0,0 1,1 1,1 0,0 1,0 1,0 1,0 1,0 2,0 0,0 1,0 1,0 0,0 1,0 1,0 1,0 1,-1 1,-1 1,0 1,0 2,-1 0,0 0,0 0,-1 1,0 1,-1 1,-1 0,0 0,-1 0,-1 1,-1 1,-1 1,-2 0,0 0,-1 -1,-1z"/>
   <path fill="#BDBFC1" fill-rule="nonzero" d="M12825 5901l-16 0 0 -53 16 0 0 53zm7 -67l-31 0c-3,0 -7,3 -7,7l0 67c0,4 4,7 7,7l31 0c4,0 7,-3 7,-7l0 -67c0,-4 -3,-7 -7,-7z"/>
   <path fill="#BDBFC1" fill-rule="nonzero" d="M12573 5901l-17 0 0 -53 17 0 0 53zm7 -67l-31 0c-3,0 -7,3 -7,7l0 67c0,4 4,7 7,7l31 0c3,0 7,-3 7,-7l0 -67c0,-4 -4,-7 -7,-7z"/>
   <path fill="#BDBFC1" fill-rule="nonzero" d="M12849 5951l-65 0 0 -137 65 0 0 137zm-70 -221l-177 0 0 -36 17 0 0 11c0,4 3,7 7,7l22 0c4,0 7,-3 7,-7l0 -11 17 0 0 11c0,4 3,7 7,7l23 0c4,0 7,-3 7,-7l0 -11 17 0 0 11c0,4 3,7 7,7l22 0c4,0 7,-3 7,-7l0 -11 17 0 0 36zm-53 14l44 0 0 20 -44 0 0 -20zm-56 0l42 0 0 20 -42 0 0 -20zm-59 0l44 0 0 20 -44 0 0 -20zm159 207l-26 0 0 -67c0,-29 -24,-53 -53,-53 -30,0 -54,24 -54,53l0 67 -26 0 0 -148 115 0c3,0 6,-3 6,-7 0,-4 -3,-7 -6,-7l-115 0 0 -11 159 0 0 173zm-40 0l-32 0 0 -105c18,3 32,19 32,38l0 67zm-47 0l-32 0 0 -67c0,-19 14,-35 32,-38l0 105zm-86 0l-65 0 0 -137 65 0 0 137zm-32 -192l26 41 -53 0 27 -41zm252 0l26 41 -53 0 27 -41zm-108 -138l47 0 -8 10c-1,2 -1,6 0,8l8 11 -47 0 0 -29zm154 186l0 -1c0,0 0,0 0,0l0 0c0,0 0,0 0,0 0,-1 -1,-2 -1,-3l-40 -61c-1,-2 -3,-3 -5,-3 -3,0 -5,1 -6,3l-27 41 0 -39 2 0c4,0 7,-3 7,-7l0 -50c0,-4 -3,-7 -7,-7l-31 0c-4,0 -7,3 -7,7l0 11 -8 0 0 -11c0,-4 -4,-7 -7,-7l-24 0 0 -16 61 0c2,0 5,-2 6,-4 1,-2 1,-5 -1,-7l-12 -18 12 -17c2,-3 2,-5 1,-8 -1,-2 -4,-3 -6,-3l-68 0c-4,0 -7,3 -7,7l0 84 -9 0 0 -11c0,-4 -3,-7 -7,-7l-31 0c-3,0 -7,3 -7,7l0 11 -8 0 0 -11c0,-4 -3,-7 -7,-7l-31 0c-4,0 -7,3 -7,7l0 50c0,4 3,7 7,7l2 0 0 39 -27 -41c-1,-2 -3,-3 -5,-3 -3,0 -5,1 -6,3l-40 61c0,1 -1,2 -1,3 0,0 0,0 0,0l0 0c0,0 0,0 0,0l0 1c0,0 0,0 0,0l0 151c0,4 3,7 7,7l331 0c4,0 7,-3 7,-7l0 -151c0,0 0,0 0,0z"/>
   <g transform="matrix(1.00248 0 0 1 3856.44 -1094.13)">
    <text x="8046" y="3870"  fill="#9F938F" font-weight="normal" font-size="118.424px" font-family="Arial">P</text>
    <text x="8145" y="3870"  fill="#9F938F" font-weight="normal" font-size="118.424px" font-family="Arial">E</text>
    <text x="8245" y="3870"  fill="#9F938F" font-weight="normal" font-size="118.424px" font-family="Arial">S</text>
    <text x="8344" y="3870"  fill="#9F938F" font-weight="normal" font-size="118.424px" font-family="Arial">H</text>
    <text x="8451" y="3870"  fill="#9F938F" font-weight="normal" font-size="118.424px" font-family="Arial">A</text>
    <text x="8551" y="3870"  fill="#9F938F" font-weight="normal" font-size="118.424px" font-family="Arial">W</text>
    <text x="8683" y="3870"  fill="#9F938F" font-weight="normal" font-size="118.424px" font-family="Arial">A</text>
    <text x="8783" y="3870"  fill="#9F938F" font-weight="normal" font-size="118.424px" font-family="Arial">R</text>
    <text x="8889" y="3870"  fill="#9F938F" font-weight="normal" font-size="118.424px" font-family="Arial"> </text>
    <text x="8942" y="3870"  fill="#9F938F" font-weight="normal" font-size="118.424px" font-family="Arial">A</text>
    <text x="9043" y="3870"  fill="#9F938F" font-weight="normal" font-size="118.424px" font-family="Arial">I</text>
    <text x="9096" y="3870"  fill="#9F938F" font-weight="normal" font-size="118.424px" font-family="Arial">R</text>
    <text x="9203" y="3870"  fill="#9F938F" font-weight="normal" font-size="118.424px" font-family="Arial">P</text>
    <text x="9302" y="3870"  fill="#9F938F" font-weight="normal" font-size="118.424px" font-family="Arial">O</text>
    <text x="9414" y="3870"  fill="#9F938F" font-weight="normal" font-size="118.424px" font-family="Arial">R</text>
    <text x="9521" y="3870"  fill="#9F938F" font-weight="normal" font-size="118.424px" font-family="Arial">T</text>
    <text x="9614" y="3870"  fill="#9F938F" font-weight="normal" font-size="118.424px" font-family="Arial"> </text>
   </g>
   <g transform="matrix(1.00248 0 0 1 6673.19 -906.343)">
    <text x="8046" y="3870"  fill="#848688" font-weight="normal" font-size="136.368px" font-family="Garamond">10-min</text>
    <text x="8422" y="3870"  fill="#848688" font-weight="normal" font-size="136.368px" font-family="Garamond">ute driv</text>
    <text x="8826" y="3870"  fill="#848688" font-weight="normal" font-size="136.368px" font-family="Garamond">e</text>
   </g>
   <g transform="matrix(1.00248 0 0 1 5929.78 -1094.13)">
    <text x="8046" y="3870"  fill="#9F938F" font-weight="normal" font-size="118.424px" font-family="Arial">S</text>
    <text x="8145" y="3870"  fill="#9F938F" font-weight="normal" font-size="118.424px" font-family="Arial">H</text>
    <text x="8252" y="3870"  fill="#9F938F" font-weight="normal" font-size="118.424px" font-family="Arial">A</text>
    <text x="8351" y="3870"  fill="#9F938F" font-weight="normal" font-size="118.424px" font-family="Arial">U</text>
    <text x="8458" y="3870"  fill="#9F938F" font-weight="normal" font-size="118.424px" font-family="Arial">K</text>
    <text x="8557" y="3870"  fill="#9F938F" font-weight="normal" font-size="118.424px" font-family="Arial">A</text>
    <text x="8657" y="3870"  fill="#9F938F" font-weight="normal" font-size="118.424px" font-family="Arial">T</text>
    <text x="8749" y="3870"  fill="#9F938F" font-weight="normal" font-size="118.424px" font-family="Arial"> </text>
    <text x="8804" y="3870"  fill="#9F938F" font-weight="normal" font-size="118.424px" font-family="Arial">K</text>
    <text x="8903" y="3870"  fill="#9F938F" font-weight="normal" font-size="118.424px" font-family="Arial">H</text>
    <text x="9010" y="3870"  fill="#9F938F" font-weight="normal" font-size="118.424px" font-family="Arial">A</text>
    <text x="9109" y="3870"  fill="#9F938F" font-weight="normal" font-size="118.424px" font-family="Arial">N</text>
    <text x="9216" y="3870"  fill="#9F938F" font-weight="normal" font-size="118.424px" font-family="Arial">U</text>
    <text x="9321" y="3870"  fill="#9F938F" font-weight="normal" font-size="118.424px" font-family="Arial">M</text>
    <text x="9441" y="3870"  fill="#9F938F" font-weight="normal" font-size="118.424px" font-family="Arial"> </text>
    <text x="9494" y="3870"  fill="#9F938F" font-weight="normal" font-size="118.424px" font-family="Arial">H</text>
    <text x="9601" y="3870"  fill="#9F938F" font-weight="normal" font-size="118.424px" font-family="Arial">O</text>
    <text x="9713" y="3870"  fill="#9F938F" font-weight="normal" font-size="118.424px" font-family="Arial">S</text>
    <text x="9814" y="3870"  fill="#9F938F" font-weight="normal" font-size="118.424px" font-family="Arial">P</text>
    <text x="9913" y="3870"  fill="#9F938F" font-weight="normal" font-size="118.424px" font-family="Arial">I</text>
    <text x="9966" y="3870"  fill="#9F938F" font-weight="normal" font-size="118.424px" font-family="Arial">T</text>
    <text x="10059" y="3870"  fill="#9F938F" font-weight="normal" font-size="118.424px" font-family="Arial">A</text>
    <text x="10159" y="3870"  fill="#9F938F" font-weight="normal" font-size="118.424px" font-family="Arial">L</text>
    <text x="10246" y="3870"  fill="#9F938F" font-weight="normal" font-size="118.424px" font-family="Arial"> </text>
   </g>
   <g transform="matrix(1.00248 0 0 1 4235.8 303.128)">
    <text x="8046" y="3870"  fill="#848688" font-weight="normal" font-size="136.368px" font-family="Garamond">5-min</text>
    <text x="8358" y="3870"  fill="#848688" font-weight="normal" font-size="136.368px" font-family="Garamond">ute driv</text>
    <text x="8762" y="3870"  fill="#848688" font-weight="normal" font-size="136.368px" font-family="Garamond">e</text>
   </g>
   <g transform="matrix(1.00248 0 0 1 4061.86 115.354)">
    <text x="8046" y="3870"  fill="#9F938F" font-weight="normal" font-size="118.424px" font-family="Arial">P</text>
    <text x="8145" y="3870"  fill="#9F938F" font-weight="normal" font-size="118.424px" font-family="Arial">E</text>
    <text x="8245" y="3870"  fill="#9F938F" font-weight="normal" font-size="118.424px" font-family="Arial">S</text>
    <text x="8344" y="3870"  fill="#9F938F" font-weight="normal" font-size="118.424px" font-family="Arial">H</text>
    <text x="8451" y="3870"  fill="#9F938F" font-weight="normal" font-size="118.424px" font-family="Arial">A</text>
    <text x="8551" y="3870"  fill="#9F938F" font-weight="normal" font-size="118.424px" font-family="Arial">W</text>
    <text x="8683" y="3870"  fill="#9F938F" font-weight="normal" font-size="118.424px" font-family="Arial">A</text>
    <text x="8783" y="3870"  fill="#9F938F" font-weight="normal" font-size="118.424px" font-family="Arial">R</text>
    <text x="8889" y="3870"  fill="#9F938F" font-weight="normal" font-size="118.424px" font-family="Arial"> </text>
    <text x="8943" y="3870"  fill="#9F938F" font-weight="normal" font-size="118.424px" font-family="Arial">B</text>
    <text x="9042" y="3870"  fill="#9F938F" font-weight="normal" font-size="118.424px" font-family="Arial">R</text>
    <text x="9148" y="3870"  fill="#9F938F" font-weight="normal" font-size="118.424px" font-family="Arial">T</text>
   </g>
   <g transform="matrix(1.00248 0 0 1 6705.38 303.128)">
    <text x="8046" y="3870"  fill="#848688" font-weight="normal" font-size="136.368px" font-family="Garamond">5-min</text>
    <text x="8358" y="3870"  fill="#848688" font-weight="normal" font-size="136.368px" font-family="Garamond">ute driv</text>
    <text x="8762" y="3870"  fill="#848688" font-weight="normal" font-size="136.368px" font-family="Garamond">e</text>
   </g>
   <g transform="matrix(1.00248 0 0 1 6144.15 115.339)">
    <text x="8046" y="3870"  fill="#9F938F" font-weight="normal" font-size="118.424px" font-family="Arial">G</text>
    <text x="8158" y="3870"  fill="#9F938F" font-weight="normal" font-size="118.424px" font-family="Arial">T</text>
    <text x="8252" y="3870"  fill="#9F938F" font-weight="normal" font-size="118.424px" font-family="Arial"> </text>
    <text x="8305" y="3870"  fill="#9F938F" font-weight="normal" font-size="118.424px" font-family="Arial">R</text>
    <text x="8412" y="3870"  fill="#9F938F" font-weight="normal" font-size="118.424px" font-family="Arial">O</text>
    <text x="8524" y="3870"  fill="#9F938F" font-weight="normal" font-size="118.424px" font-family="Arial">A</text>
    <text x="8624" y="3870"  fill="#9F938F" font-weight="normal" font-size="118.424px" font-family="Arial">D</text>
    <text x="8730" y="3870"  fill="#9F938F" font-weight="normal" font-size="118.424px" font-family="Arial"> </text>
    <text x="8784" y="3870"  fill="#9F938F" font-weight="normal" font-size="118.424px" font-family="Arial">&amp;</text>
    <text x="8883" y="3870"  fill="#9F938F" font-weight="normal" font-size="118.424px" font-family="Arial"> </text>
    <text x="8938" y="3870"  fill="#9F938F" font-weight="normal" font-size="118.424px" font-family="Arial">R</text>
    <text x="9043" y="3870"  fill="#9F938F" font-weight="normal" font-size="118.424px" font-family="Arial">I</text>
    <text x="9096" y="3870"  fill="#9F938F" font-weight="normal" font-size="118.424px" font-family="Arial">N</text>
    <text x="9203" y="3870"  fill="#9F938F" font-weight="normal" font-size="118.424px" font-family="Arial">G</text>
    <text x="9315" y="3870"  fill="#9F938F" font-weight="normal" font-size="118.424px" font-family="Arial"> </text>
    <text x="9370" y="3870"  fill="#9F938F" font-weight="normal" font-size="118.424px" font-family="Arial">R</text>
    <text x="9475" y="3870"  fill="#9F938F" font-weight="normal" font-size="118.424px" font-family="Arial">O</text>
    <text x="9589" y="3870"  fill="#9F938F" font-weight="normal" font-size="118.424px" font-family="Arial">A</text>
    <text x="9688" y="3870"  fill="#9F938F" font-weight="normal" font-size="118.424px" font-family="Arial">D</text>
    <text x="9795" y="3870"  fill="#9F938F" font-weight="normal" font-size="118.424px" font-family="Arial"> </text>
   </g>
   <g transform="matrix(1.00248 0 0 1 4203.6 1391.66)">
    <text x="8046" y="3870"  fill="#848688" font-weight="normal" font-size="136.368px" font-family="Garamond">15-min</text>
    <text x="8422" y="3870"  fill="#848688" font-weight="normal" font-size="136.368px" font-family="Garamond">ute driv</text>
    <text x="8826" y="3870"  fill="#848688" font-weight="normal" font-size="136.368px" font-family="Garamond">e</text>
   </g>
   <g transform="matrix(1.00248 0 0 1 4459.83 1203.89)">
    <text x="8046" y="3870"  fill="#9F938F" font-weight="normal" font-size="118.424px" font-family="Arial">Z</text>
    <text x="8138" y="3870"  fill="#9F938F" font-weight="normal" font-size="118.424px" font-family="Arial">O</text>
    <text x="8252" y="3870"  fill="#9F938F" font-weight="normal" font-size="118.424px" font-family="Arial">O</text>
   </g>
   <g transform="matrix(1.00248 0 0 1 6673.48 1391.66)">
    <text x="8046" y="3870"  fill="#848688" font-weight="normal" font-size="136.368px" font-family="Garamond">20-min</text>
    <text x="8422" y="3870"  fill="#848688" font-weight="normal" font-size="136.368px" font-family="Garamond">ute driv</text>
    <text x="8826" y="3870"  fill="#848688" font-weight="normal" font-size="136.368px" font-family="Garamond">e</text>
   </g>
   <g transform="matrix(1.00248 0 0 1 6149.11 1203.68)">
    <text x="8046" y="3870"  fill="#9F938F" font-weight="normal" font-size="118.424px" font-family="Arial">Q</text>
    <text x="8158" y="3870"  fill="#9F938F" font-weight="normal" font-size="118.424px" font-family="Arial">I</text>
    <text x="8212" y="3870"  fill="#9F938F" font-weight="normal" font-size="118.424px" font-family="Arial">S</text>
    <text x="8311" y="3870"  fill="#9F938F" font-weight="normal" font-size="118.424px" font-family="Arial">S</text>
    <text x="8412" y="3870"  fill="#9F938F" font-weight="normal" font-size="118.424px" font-family="Arial">A</text>
    <text x="8511" y="3870"  fill="#9F938F" font-weight="normal" font-size="118.424px" font-family="Arial"> </text>
    <text x="8564" y="3870"  fill="#9F938F" font-weight="normal" font-size="118.424px" font-family="Arial">K</text>
    <text x="8665" y="3870"  fill="#9F938F" font-weight="normal" font-size="118.424px" font-family="Arial">H</text>
    <text x="8770" y="3870"  fill="#9F938F" font-weight="normal" font-size="118.424px" font-family="Arial">W</text>
    <text x="8903" y="3870"  fill="#9F938F" font-weight="normal" font-size="118.424px" font-family="Arial">A</text>
    <text x="9003" y="3870"  fill="#9F938F" font-weight="normal" font-size="118.424px" font-family="Arial">N</text>
    <text x="9109" y="3870"  fill="#9F938F" font-weight="normal" font-size="118.424px" font-family="Arial">I</text>
    <text x="9163" y="3870"  fill="#9F938F" font-weight="normal" font-size="118.424px" font-family="Arial"> </text>
    <text x="9216" y="3870"  fill="#9F938F" font-weight="normal" font-size="118.424px" font-family="Arial">B</text>
    <text x="9316" y="3870"  fill="#9F938F" font-weight="normal" font-size="118.424px" font-family="Arial">A</text>
    <text x="9415" y="3870"  fill="#9F938F" font-weight="normal" font-size="118.424px" font-family="Arial">Z</text>
    <text x="9509" y="3870"  fill="#9F938F" font-weight="normal" font-size="118.424px" font-family="Arial">A</text>
    <text x="9608" y="3870"  fill="#9F938F" font-weight="normal" font-size="118.424px" font-family="Arial">A</text>
    <text x="9708" y="3870"  fill="#9F938F" font-weight="normal" font-size="118.424px" font-family="Arial">R</text>
    <text x="9814" y="3870"  fill="#9F938F" font-weight="normal" font-size="118.424px" font-family="Arial"> </text>
   </g>
   <g transform="matrix(1.00248 0 0 1 4255.98 2552.77)">
    <text x="8046" y="3870"  fill="#848688" font-weight="normal" font-size="136.368px" font-family="Garamond">12-min</text>
    <text x="8422" y="3870"  fill="#848688" font-weight="normal" font-size="136.368px" font-family="Garamond">ute driv</text>
    <text x="8826" y="3870"  fill="#848688" font-weight="normal" font-size="136.368px" font-family="Garamond">e</text>
   </g>
   <g transform="matrix(1.00248 0 0 1 3961.53 2364.78)">
    <text x="8046" y="3870"  fill="#9F938F" font-weight="normal" font-size="118.424px" font-family="Arial">Q</text>
    <text x="8158" y="3870"  fill="#9F938F" font-weight="normal" font-size="118.424px" font-family="Arial">I</text>
    <text x="8212" y="3870"  fill="#9F938F" font-weight="normal" font-size="118.424px" font-family="Arial">L</text>
    <text x="8298" y="3870"  fill="#9F938F" font-weight="normal" font-size="118.424px" font-family="Arial">A</text>
    <text x="8398" y="3870"  fill="#9F938F" font-weight="normal" font-size="118.424px" font-family="Arial"> </text>
    <text x="8452" y="3870"  fill="#9F938F" font-weight="normal" font-size="118.424px" font-family="Arial">B</text>
    <text x="8551" y="3870"  fill="#9F938F" font-weight="normal" font-size="118.424px" font-family="Arial">A</text>
    <text x="8652" y="3870"  fill="#9F938F" font-weight="normal" font-size="118.424px" font-family="Arial">L</text>
    <text x="8738" y="3870"  fill="#9F938F" font-weight="normal" font-size="118.424px" font-family="Arial">A</text>
    <text x="8837" y="3870"  fill="#9F938F" font-weight="normal" font-size="118.424px" font-family="Arial"> </text>
    <text x="8892" y="3870"  fill="#9F938F" font-weight="normal" font-size="118.424px" font-family="Arial">H</text>
    <text x="8997" y="3870"  fill="#9F938F" font-weight="normal" font-size="118.424px" font-family="Arial">I</text>
    <text x="9050" y="3870"  fill="#9F938F" font-weight="normal" font-size="118.424px" font-family="Arial">S</text>
    <text x="9151" y="3870"  fill="#9F938F" font-weight="normal" font-size="118.424px" font-family="Arial">A</text>
    <text x="9250" y="3870"  fill="#9F938F" font-weight="normal" font-size="118.424px" font-family="Arial">R</text>
    <text x="9357" y="3870"  fill="#9F938F" font-weight="normal" font-size="118.424px" font-family="Arial"> </text>
   </g>
   <g transform="matrix(1.00248 0 0 1 6653.13 2552.77)">
    <text x="8046" y="3870"  fill="#848688" font-weight="normal" font-size="136.368px" font-family="Garamond">5-min</text>
    <text x="8358" y="3870"  fill="#848688" font-weight="normal" font-size="136.368px" font-family="Garamond">ute driv</text>
    <text x="8762" y="3870"  fill="#848688" font-weight="normal" font-size="136.368px" font-family="Garamond">e</text>
   </g>
   <g transform="matrix(1.00248 0 0 1 6245.95 2364.99)">
    <text x="8046" y="3870"  fill="#9F938F" font-weight="normal" font-size="118.424px" font-family="Arial">M</text>
    <text x="8165" y="3870"  fill="#9F938F" font-weight="normal" font-size="118.424px" font-family="Arial">A</text>
    <text x="8265" y="3870"  fill="#9F938F" font-weight="normal" font-size="118.424px" font-family="Arial">S</text>
    <text x="8364" y="3870"  fill="#9F938F" font-weight="normal" font-size="118.424px" font-family="Arial">J</text>
    <text x="8445" y="3870"  fill="#9F938F" font-weight="normal" font-size="118.424px" font-family="Arial">I</text>
    <text x="8498" y="3870"  fill="#9F938F" font-weight="normal" font-size="118.424px" font-family="Arial">D</text>
    <text x="8604" y="3870"  fill="#9F938F" font-weight="normal" font-size="118.424px" font-family="Arial"> </text>
    <text x="8657" y="3870"  fill="#9F938F" font-weight="normal" font-size="118.424px" font-family="Arial">M</text>
    <text x="8777" y="3870"  fill="#9F938F" font-weight="normal" font-size="118.424px" font-family="Arial">O</text>
    <text x="8890" y="3870"  fill="#9F938F" font-weight="normal" font-size="118.424px" font-family="Arial">M</text>
    <text x="9010" y="3870"  fill="#9F938F" font-weight="normal" font-size="118.424px" font-family="Arial">I</text>
    <text x="9063" y="3870"  fill="#9F938F" font-weight="normal" font-size="118.424px" font-family="Arial">N</text>
    <text x="9170" y="3870"  fill="#9F938F" font-weight="normal" font-size="118.424px" font-family="Arial"> </text>
    <text x="9223" y="3870"  fill="#9F938F" font-weight="normal" font-size="118.424px" font-family="Arial">K</text>
    <text x="9323" y="3870"  fill="#9F938F" font-weight="normal" font-size="118.424px" font-family="Arial">H</text>
    <text x="9429" y="3870"  fill="#9F938F" font-weight="normal" font-size="118.424px" font-family="Arial">A</text>
    <text x="9529" y="3870"  fill="#9F938F" font-weight="normal" font-size="118.424px" font-family="Arial">N</text>
   </g>
   <g transform="matrix(1.00248 0 0 1 3920.23 -2490.52)">
    <text x="8046" y="3870"  fill="#A9ABAE" font-weight="normal" font-size="107.117px" font-family="Arial">L</text>
    <text x="8124" y="3870"  fill="#A9ABAE" font-weight="normal" font-size="107.117px" font-family="Arial">O</text>
    <text x="8226" y="3870"  fill="#A9ABAE" font-weight="normal" font-size="107.117px" font-family="Arial">C</text>
    <text x="8322" y="3870"  fill="#A9ABAE" font-weight="normal" font-size="107.117px" font-family="Arial">A</text>
    <text x="8412" y="3870"  fill="#A9ABAE" font-weight="normal" font-size="107.117px" font-family="Arial">T</text>
    <text x="8497" y="3870"  fill="#A9ABAE" font-weight="normal" font-size="107.117px" font-family="Arial">I</text>
    <text x="8545" y="3870"  fill="#A9ABAE" font-weight="normal" font-size="107.117px" font-family="Arial">O</text>
    <text x="8647" y="3870"  fill="#A9ABAE" font-weight="normal" font-size="107.117px" font-family="Arial">N</text>
   </g>
   <polyline fill="none" stroke="#FEFEFE" stroke-width="10.0484" points="319,4694 667,4759 684,4763 792,4787 1381,4788 1518,4744 "/>
   <polygon fill="#F8F5F1" points="9474,3156 10647,3156 10647,3655 9474,3655 "/>
   <rect fill="#F8F5F1" x="852" y="6181" width="984" height="517"/>
   <rect fill="#F8F5F1" x="6224" y="774" width="913" height="432"/>
   <rect fill="#F8F5F1" x="422" y="4170" width="1233" height="482"/>
   <g>
    <g transform="matrix(1.00248 0 0 1 -7313.11 517.989)">
     <text x="8046" y="3870"  fill="#9F938F" stroke="#9F938F" stroke-width="3.3521" font-weight="300" font-size="65.8904px" font-family="Nunito Light">10 MINS DRIVE TO</text>
    </g>
    <g transform="matrix(1.00248 0 0 1 -7500.51 609.817)">
     <text x="8046" y="3870"  fill="#9F938F" stroke="#9F938F" stroke-width="3.3521" font-weight="300" font-size="65.8904px" font-family="Nunito Light">SHAUKAT KHANUM HOSPITAL</text>
    </g>
   </g>
   <g transform="matrix(1.00248 0 0 1 -6023.9 385.781)">
    <text x="8046" y="3870"  fill="#9F938F" font-weight="300" font-size="104.719px" font-family="Nunito Light">GT ROAD</text>
   </g>
   <g>
    <g transform="matrix(1.00248 0 0 1 -7007.51 2545.95)">
     <text x="8046" y="3870"  fill="#9F938F" stroke="#9F938F" stroke-width="3.3521" font-weight="300" font-size="65.8904px" font-family="Nunito Light">10 MINS DRIVE TO</text>
    </g>
    <g transform="matrix(1.00248 0 0 1 -6948.1 2640.05)">
     <text x="8046" y="3870"  fill="#9F938F" stroke="#9F938F" stroke-width="3.3521" font-weight="300" font-size="65.8904px" font-family="Nunito Light">RMI HOSPITAL</text>
    </g>
   </g>
   <rect fill="#F8F5F1" x="3767" y="3082" width="894" height="355"/>
   <g>
    <g transform="matrix(1.00248 0 0 1 -4147.83 -646.982)">
     <text x="8046" y="3870"  fill="#9F938F" stroke="#9F938F" stroke-width="3.3521" font-weight="300" font-size="73.5326px" font-family="Nunito Light">5 MINS DRIVE TO</text>
    </g>
    <g transform="matrix(1.00248 0 0 1 -4080.5 -538.521)">
     <text x="8046" y="3870"  fill="#9F938F" stroke="#9F938F" stroke-width="3.3521" font-weight="300" font-size="73.5326px" font-family="Nunito Light">CANAL TOWN</text>
    </g>
   </g>
   <rect fill="#F8F5F1" x="5381" y="3137" width="856" height="352"/>
   <g>
    <g transform="matrix(1.00248 0 0 1 -2526.59 -578.541)">
     <text x="8046" y="3870"  fill="#9F938F" stroke="#9F938F" stroke-width="3.3521" font-weight="300" font-size="65.8904px" font-family="Nunito Light">5 MINS DRIVE TO</text>
    </g>
    <g transform="matrix(1.00248 0 0 1 -2503.52 -489.597)">
     <text x="8046" y="3870"  fill="#9F938F" stroke="#9F938F" stroke-width="3.3521" font-weight="300" font-size="65.8904px" font-family="Nunito Light">PESHAWAE BRT</text>
    </g>
   </g>
   <g>
    <g transform="matrix(1.00248 0 0 1 -1633.06 -2906.73)">
     <text x="8046" y="3870"  fill="#9F938F" stroke="#9F938F" stroke-width="3.3521" font-weight="300" font-size="69.4681px" font-family="Nunito Light">15 MINS DRIVE</text>
    </g>
    <g transform="matrix(1.00248 0 0 1 -1568.6 -2805.12)">
     <text x="8046" y="3870"  fill="#9F938F" stroke="#9F938F" stroke-width="3.3521" font-weight="300" font-size="69.4681px" font-family="Nunito Light">TO THE ZOO</text>
    </g>
   </g>
   <g transform="matrix(0.341018 0.940362 -0.942696 0.340174 3102.65 -7886.64)">
    <text x="8046" y="3870"  fill="#9F938F" stroke="#9F938F" stroke-width="3.01571" font-weight="300" font-size="107.98px" font-family="Nunito Light">CANAL ROAD</text>
   </g>
   <g transform="matrix(0.799092 0.60383 -0.605328 0.797113 -1169.73 -5123.75)">
    <text x="8046" y="3870"  fill="#9F938F" stroke="#9F938F" stroke-width="3.01571" font-weight="300" font-size="104.438px" font-family="Nunito Light">CANAL ROAD</text>
   </g>
   <g transform="matrix(1.0024 0.0130505 -0.0130828 0.999915 -3649 787.65)">
    <text x="8046" y="3870"  fill="#9F938F" stroke="#9F938F" stroke-width="3.01571" font-weight="300" font-size="105.194px" font-family="Nunito Light">CANAL ROAD</text>
   </g>
   <g transform="matrix(1.0024 0.0130505 -0.0130828 0.999915 -50.9508 975.731)">
    <text x="8046" y="3870"  fill="#9F938F" stroke="#9F938F" stroke-width="3.01571" font-weight="300" font-size="176.997px" font-family="Nunito Light">UNIVERSITY</text>
   </g>
   <g transform="matrix(1.0024 0.0130505 -0.0130828 0.999915 188.65 1284.68)">
    <text x="8046" y="3870"  fill="#9F938F" stroke="#9F938F" stroke-width="3.01571" font-weight="300" font-size="176.997px" font-family="Nunito Light">TOWN</text>
   </g>
   <g>
    <g transform="matrix(1.00248 0 0 1 1692.45 -545.068)">
     <text x="8046" y="3870"  fill="#9F938F" stroke="#9F938F" stroke-width="3.3521" font-weight="300" font-size="69.6343px" font-family="Nunito Light">15 MINS DRIVE TO</text>
    </g>
    <g transform="matrix(1.00248 0 0 1 1764.42 -440.065)">
     <text x="8046" y="3870"  fill="#9F938F" stroke="#9F938F" stroke-width="3.3521" font-weight="300" font-size="69.6343px" font-family="Nunito Light">BACHA KHAN</text>
    </g>
    <g transform="matrix(1.00248 0 0 1 1562.77 -335.068)">
     <text x="8046" y="3870"  fill="#9F938F" stroke="#9F938F" stroke-width="3.3521" font-weight="300" font-size="69.6343px" font-family="Nunito Light">INTERNATIONAL AIRPORT</text>
    </g>
   </g>
   <g transform="matrix(0.861304 -0.511687 0.512957 0.859172 -1046.07 4330.02)">
    <text x="8046" y="3870"  fill="#9F938F" stroke="#9F938F" stroke-width="3.3521" font-weight="300" font-size="96.7598px" font-family="Nunito Light">MOTORWAY EXPRESS</text>
   </g>
   <g transform="matrix(0.0560196 -0.998437 1.00092 0.0558809 -4141.98 14616.3)">
    <text x="8046" y="3870"  fill="#9F938F" stroke="#9F938F" stroke-width="3.3521" font-weight="300" font-size="96.7598px" font-family="Nunito Light">PESHAWAR RING ROAD</text>
   </g>
   <path fill="none" stroke="#BA8458" stroke-width="16.7526" d="M4121 4807c4,1 109,25 139,34 127,38 834,-66 1105,81 215,117 482,451 709,546 191,81 307,97 609,131 6,1 13,2 20,3 133,17 446,74 515,135 42,37 278,546 331,615 261,333 73,331 458,609 7,4 14,1 21,5"/>
   <path fill="none" stroke="#BA8458" stroke-width="16.7526" d="M2039 774c26,191 259,509 308,793 0,2 76,164 91,247 13,68 93,170 108,312 1,14 50,131 66,150 -5,27 140,500 190,541 4,4 567,458 630,515 222,200 109,256 198,552 37,231 91,276 151,477 50,170 166,377 340,446"/>
   <polygon fill="#FEFEFE" points="10013,2531 10017,2463 9317,1818 8439,1466 8296,1470 7797,1190 7619,1322 7272,993 7272,857 7623,1203 7800,1080 8314,1375 8469,1373 9358,1736 10110,2429 10114,2545 "/>
   <path fill="#BA8458" stroke="#FEFEFE" stroke-width="16.7526" d="M6830 5625c106,16 281,59 379,103 49,65 88,132 117,201 28,70 -41,102 -102,135 -61,33 -111,57 -111,57 0,0 -127,28 -171,24 -44,-5 -90,-22 -109,-82 -70,-208 -123,-278 -3,-438z"/>
  </g>
 </g>
</svg>
